<svg width="144" height="33" viewBox="0 0 144 33" fill="none" xmlns="http://www.w3.org/2000/svg">
<g style="mix-blend-mode:color-burn" filter="url(#filter0_d_1_3)">
<path d="M4.76136 24V0.727272H14.375C16.1174 0.727272 17.6212 1.04167 18.8864 1.67045C20.1591 2.29167 21.1402 3.18561 21.8295 4.35227C22.5189 5.51136 22.8636 6.88636 22.8636 8.47727C22.8636 10.0909 22.5114 11.4621 21.8068 12.5909C21.1023 13.7121 20.1023 14.5682 18.8068 15.1591C17.5114 15.7424 15.9773 16.0341 14.2045 16.0341H8.125V11.6023H13.1591C14.0076 11.6023 14.7159 11.4924 15.2841 11.2727C15.8598 11.0455 16.2955 10.7045 16.5909 10.25C16.8864 9.78788 17.0341 9.19697 17.0341 8.47727C17.0341 7.75757 16.8864 7.16288 16.5909 6.69318C16.2955 6.21591 15.8598 5.85985 15.2841 5.625C14.7083 5.38258 14 5.26136 13.1591 5.26136H10.3864V24H4.76136ZM17.8636 13.3636L23.6591 24H17.5227L11.8409 13.3636H17.8636ZM47.9148 12.3636C47.9148 14.9242 47.4223 17.0947 46.4375 18.875C45.4527 20.6553 44.1193 22.0076 42.4375 22.9318C40.7633 23.8561 38.8845 24.3182 36.8011 24.3182C34.7102 24.3182 32.8277 23.8523 31.1534 22.9205C29.4792 21.9886 28.1496 20.6364 27.1648 18.8636C26.1875 17.0833 25.6989 14.9167 25.6989 12.3636C25.6989 9.80303 26.1875 7.63258 27.1648 5.85227C28.1496 4.07197 29.4792 2.7197 31.1534 1.79545C32.8277 0.871211 34.7102 0.40909 36.8011 0.40909C38.8845 0.40909 40.7633 0.871211 42.4375 1.79545C44.1193 2.7197 45.4527 4.07197 46.4375 5.85227C47.4223 7.63258 47.9148 9.80303 47.9148 12.3636ZM42.1648 12.3636C42.1648 10.8485 41.9489 9.56818 41.517 8.52273C41.0928 7.47727 40.4792 6.6856 39.6761 6.14773C38.8807 5.60985 37.9223 5.34091 36.8011 5.34091C35.6875 5.34091 34.7292 5.60985 33.9261 6.14773C33.1231 6.6856 32.5057 7.47727 32.0739 8.52273C31.6496 9.56818 31.4375 10.8485 31.4375 12.3636C31.4375 13.8788 31.6496 15.1591 32.0739 16.2045C32.5057 17.25 33.1231 18.0417 33.9261 18.5795C34.7292 19.1174 35.6875 19.3864 36.8011 19.3864C37.9223 19.3864 38.8807 19.1174 39.6761 18.5795C40.4792 18.0417 41.0928 17.25 41.517 16.2045C41.9489 15.1591 42.1648 13.8788 42.1648 12.3636ZM51.1989 24V0.727272H60.9034C62.6458 0.727272 64.1042 0.973484 65.2784 1.46591C66.4602 1.95833 67.3466 2.64773 67.9375 3.53409C68.536 4.42045 68.8352 5.44697 68.8352 6.61364C68.8352 7.5 68.6496 8.29167 68.2784 8.98864C67.9072 9.67803 67.3958 10.25 66.7443 10.7045C66.0928 11.1591 65.339 11.4773 64.483 11.6591V11.8864C65.4223 11.9318 66.2898 12.1856 67.0852 12.6477C67.8883 13.1098 68.5322 13.7538 69.017 14.5795C69.5019 15.3977 69.7443 16.3674 69.7443 17.4886C69.7443 18.7386 69.4261 19.8561 68.7898 20.8409C68.1534 21.8182 67.233 22.5909 66.0284 23.1591C64.8239 23.7197 63.3617 24 61.642 24H51.1989ZM56.8239 19.4659H60.3011C61.5208 19.4659 62.4186 19.2348 62.9943 18.7727C63.5777 18.3106 63.8693 17.6667 63.8693 16.8409C63.8693 16.2424 63.7292 15.7273 63.4489 15.2955C63.1686 14.8561 62.7708 14.5189 62.2557 14.2841C61.7405 14.0417 61.1231 13.9205 60.4034 13.9205H56.8239V19.4659ZM56.8239 10.2955H59.9375C60.5511 10.2955 61.0966 10.1932 61.5739 9.98864C62.0511 9.78409 62.4223 9.48864 62.6875 9.10227C62.9602 8.71591 63.0966 8.25 63.0966 7.70454C63.0966 6.92424 62.8201 6.31061 62.267 5.86364C61.714 5.41667 60.9678 5.19318 60.0284 5.19318H56.8239V10.2955ZM72.4489 24V0.727272H88.3352V5.29545H78.0739V10.0682H87.3239V14.6477H78.0739V24H72.4489ZM91.1676 24V0.727272H96.7926V19.4318H106.474V24H91.1676ZM115.011 0.727272V24H109.386V0.727272H115.011ZM124.236 0.727272L128.486 8.07955H128.668L132.963 0.727272H139.259L132.236 12.3636L139.486 24H133.031L128.668 16.5682H128.486L124.122 24H117.713L124.929 12.3636L117.895 0.727272H124.236Z" fill="#A30000"/>
</g>
<defs>
<filter id="filter0_d_1_3" x="0.76136" y="0.409088" width="142.724" height="31.9091" filterUnits="userSpaceOnUse" color-interpolation-filters="sRGB">
<feFlood flood-opacity="0" result="BackgroundImageFix"/>
<feColorMatrix in="SourceAlpha" type="matrix" values="0 0 0 0 0 0 0 0 0 0 0 0 0 0 0 0 0 0 127 0" result="hardAlpha"/>
<feOffset dy="4"/>
<feGaussianBlur stdDeviation="2"/>
<feComposite in2="hardAlpha" operator="out"/>
<feColorMatrix type="matrix" values="0 0 0 0 0 0 0 0 0 0 0 0 0 0 0 0 0 0 0.35 0"/>
<feBlend mode="normal" in2="BackgroundImageFix" result="effect1_dropShadow_1_3"/>
<feBlend mode="normal" in="SourceGraphic" in2="effect1_dropShadow_1_3" result="shape"/>
</filter>
</defs>
</svg>
